<mxfile host="app.diagrams.net" agent="Mozilla/5.0 (Macintosh; Intel Mac OS X 10.15; rv:136.0) Gecko/20100101 Firefox/136.0" version="26.2.2">
  <diagram name="Page-1" id="xKhlsxAtRhAonfhplPug">
    <mxGraphModel dx="1428" dy="732" grid="1" gridSize="10" guides="1" tooltips="1" connect="1" arrows="1" fold="1" page="1" pageScale="1" pageWidth="1920" pageHeight="1200" math="0" shadow="0">
      <root>
        <mxCell id="0" />
        <mxCell id="1" parent="0" />
        <mxCell id="vIwmV1KeTdYrx_ldE85M-15" value="" style="edgeStyle=orthogonalEdgeStyle;rounded=0;orthogonalLoop=1;jettySize=auto;html=1;" edge="1" parent="1" source="vIwmV1KeTdYrx_ldE85M-1" target="vIwmV1KeTdYrx_ldE85M-14">
          <mxGeometry relative="1" as="geometry" />
        </mxCell>
        <mxCell id="vIwmV1KeTdYrx_ldE85M-1" value="&lt;p align=&quot;left&quot; id=&quot;docs-internal-guid-2ff7460e-7fff-f5c0-583b-2fa1f68761b8&quot; style=&quot;line-height:1.2;margin-top:0pt;margin-bottom:0pt;&quot; dir=&quot;ltr&quot;&gt;&lt;span style=&quot;font-size: 9pt; font-family: &amp;quot;Courier New&amp;quot;, monospace; color: rgb(0, 0, 0); background-color: transparent; font-weight: 400; font-style: normal; font-variant: normal; text-decoration: none; vertical-align: baseline; white-space: pre-wrap;&quot;&gt;&quot;nodes&quot;: [&lt;/span&gt;&lt;/p&gt;&lt;p align=&quot;left&quot; style=&quot;line-height:1.2;margin-top:0pt;margin-bottom:0pt;&quot; dir=&quot;ltr&quot;&gt;&lt;span style=&quot;font-size: 9pt; font-family: &amp;quot;Courier New&amp;quot;, monospace; color: rgb(0, 0, 0); background-color: transparent; font-weight: 400; font-style: normal; font-variant: normal; text-decoration: none; vertical-align: baseline; white-space: pre-wrap;&quot;&gt;&amp;nbsp;&amp;nbsp;&amp;nbsp;&amp;nbsp;&lt;/span&gt;&lt;span style=&quot;font-size: 9pt; font-family: &amp;quot;Courier New&amp;quot;, monospace; color: rgb(0, 0, 0); background-color: transparent; font-weight: 400; font-style: normal; font-variant: normal; text-decoration: none; vertical-align: baseline; white-space: pre-wrap;&quot;&gt;&lt;span style=&quot;white-space:pre;&quot; class=&quot;Apple-tab-span&quot;&gt;&#x9;&lt;/span&gt;&lt;/span&gt;&lt;span style=&quot;font-size: 9pt; font-family: &amp;quot;Courier New&amp;quot;, monospace; color: rgb(0, 0, 0); background-color: transparent; font-weight: 400; font-style: normal; font-variant: normal; text-decoration: none; vertical-align: baseline; white-space: pre-wrap;&quot;&gt;...&lt;/span&gt;&lt;/p&gt;&lt;p align=&quot;left&quot; style=&quot;line-height:1.2;margin-top:0pt;margin-bottom:0pt;&quot; dir=&quot;ltr&quot;&gt;&lt;span style=&quot;font-size: 9pt; font-family: &amp;quot;Courier New&amp;quot;, monospace; color: rgb(0, 0, 0); background-color: transparent; font-weight: 400; font-style: normal; font-variant: normal; text-decoration: none; vertical-align: baseline; white-space: pre-wrap;&quot;&gt;&amp;nbsp;&amp;nbsp;&amp;nbsp;&amp;nbsp;&lt;/span&gt;&lt;span style=&quot;font-size: 9pt; font-family: &amp;quot;Courier New&amp;quot;, monospace; color: rgb(0, 0, 0); background-color: transparent; font-weight: 400; font-style: normal; font-variant: normal; text-decoration: none; vertical-align: baseline; white-space: pre-wrap;&quot;&gt;&lt;span style=&quot;white-space:pre;&quot; class=&quot;Apple-tab-span&quot;&gt;&#x9;&lt;/span&gt;&lt;/span&gt;&lt;span style=&quot;font-size: 9pt; font-family: &amp;quot;Courier New&amp;quot;, monospace; color: rgb(0, 0, 0); background-color: transparent; font-weight: 400; font-style: normal; font-variant: normal; text-decoration: none; vertical-align: baseline; white-space: pre-wrap;&quot;&gt;{&lt;/span&gt;&lt;/p&gt;&lt;p align=&quot;left&quot; style=&quot;line-height:1.2;margin-top:0pt;margin-bottom:0pt;&quot; dir=&quot;ltr&quot;&gt;&lt;span style=&quot;font-size: 9pt; font-family: &amp;quot;Courier New&amp;quot;, monospace; color: rgb(0, 0, 0); background-color: transparent; font-weight: 400; font-style: normal; font-variant: normal; text-decoration: none; vertical-align: baseline; white-space: pre-wrap;&quot;&gt;&amp;nbsp;&amp;nbsp;&amp;nbsp;&amp;nbsp;&amp;nbsp;&amp;nbsp;&amp;nbsp;&amp;nbsp;&lt;/span&gt;&lt;span style=&quot;font-size: 9pt; font-family: &amp;quot;Courier New&amp;quot;, monospace; color: rgb(0, 0, 0); background-color: transparent; font-weight: 400; font-style: normal; font-variant: normal; text-decoration: none; vertical-align: baseline; white-space: pre-wrap;&quot;&gt;&lt;span style=&quot;white-space:pre;&quot; class=&quot;Apple-tab-span&quot;&gt;&#x9;&lt;/span&gt;&lt;/span&gt;&lt;span style=&quot;font-size: 9pt; font-family: &amp;quot;Courier New&amp;quot;, monospace; color: rgb(0, 0, 0); background-color: transparent; font-weight: 400; font-style: normal; font-variant: normal; text-decoration: none; vertical-align: baseline; white-space: pre-wrap;&quot;&gt;&quot;node&quot;: &quot;Authors&quot;,&lt;/span&gt;&lt;/p&gt;&lt;p align=&quot;left&quot; style=&quot;line-height:1.2;margin-top:0pt;margin-bottom:0pt;&quot; dir=&quot;ltr&quot;&gt;&lt;span style=&quot;font-size: 9pt; font-family: &amp;quot;Courier New&amp;quot;, monospace; color: rgb(0, 0, 0); background-color: transparent; font-weight: 400; font-style: normal; font-variant: normal; text-decoration: none; vertical-align: baseline; white-space: pre-wrap;&quot;&gt;&amp;nbsp;&amp;nbsp;&amp;nbsp;&amp;nbsp;&amp;nbsp;&amp;nbsp;&amp;nbsp;&amp;nbsp;&lt;/span&gt;&lt;span style=&quot;font-size: 9pt; font-family: &amp;quot;Courier New&amp;quot;, monospace; color: rgb(0, 0, 0); background-color: transparent; font-weight: 400; font-style: normal; font-variant: normal; text-decoration: none; vertical-align: baseline; white-space: pre-wrap;&quot;&gt;&lt;span style=&quot;white-space:pre;&quot; class=&quot;Apple-tab-span&quot;&gt;&#x9;&lt;/span&gt;&lt;/span&gt;&lt;span style=&quot;font-size: 9pt; font-family: &amp;quot;Courier New&amp;quot;, monospace; color: rgb(0, 0, 0); background-color: transparent; font-weight: 400; font-style: normal; font-variant: normal; text-decoration: none; vertical-align: baseline; white-space: pre-wrap;&quot;&gt;&quot;example&quot;: [&lt;/span&gt;&lt;/p&gt;&lt;p align=&quot;left&quot; style=&quot;line-height:1.2;margin-top:0pt;margin-bottom:0pt;&quot; dir=&quot;ltr&quot;&gt;&lt;span style=&quot;font-size: 9pt; font-family: &amp;quot;Courier New&amp;quot;, monospace; color: rgb(0, 0, 0); background-color: transparent; font-weight: 400; font-style: normal; font-variant: normal; text-decoration: none; vertical-align: baseline; white-space: pre-wrap;&quot;&gt;&amp;nbsp;&amp;nbsp;&amp;nbsp;&amp;nbsp;&amp;nbsp;&amp;nbsp;&amp;nbsp;&amp;nbsp;&amp;nbsp;&amp;nbsp;&amp;nbsp;&amp;nbsp;&lt;/span&gt;&lt;span style=&quot;font-size: 9pt; font-family: &amp;quot;Courier New&amp;quot;, monospace; color: rgb(0, 0, 0); background-color: transparent; font-weight: 400; font-style: normal; font-variant: normal; text-decoration: none; vertical-align: baseline; white-space: pre-wrap;&quot;&gt;&lt;span style=&quot;white-space:pre;&quot; class=&quot;Apple-tab-span&quot;&gt;&#x9;&lt;/span&gt;&lt;/span&gt;&lt;span style=&quot;font-size: 9pt; font-family: &amp;quot;Courier New&amp;quot;, monospace; color: rgb(0, 0, 0); background-color: transparent; font-weight: 400; font-style: normal; font-variant: normal; text-decoration: none; vertical-align: baseline; white-space: pre-wrap;&quot;&gt;&quot;Sara Alibrandi&quot;,&lt;/span&gt;&lt;/p&gt;&lt;p align=&quot;left&quot; style=&quot;line-height:1.2;margin-top:0pt;margin-bottom:0pt;&quot; dir=&quot;ltr&quot;&gt;&lt;span style=&quot;font-size: 9pt; font-family: &amp;quot;Courier New&amp;quot;, monospace; color: rgb(0, 0, 0); background-color: transparent; font-weight: 400; font-style: normal; font-variant: normal; text-decoration: none; vertical-align: baseline; white-space: pre-wrap;&quot;&gt;&amp;nbsp;&amp;nbsp;&amp;nbsp;&amp;nbsp;&amp;nbsp;&amp;nbsp;&amp;nbsp;&amp;nbsp;&amp;nbsp;&amp;nbsp;&amp;nbsp;&amp;nbsp;&lt;/span&gt;&lt;span style=&quot;font-size: 9pt; font-family: &amp;quot;Courier New&amp;quot;, monospace; color: rgb(0, 0, 0); background-color: transparent; font-weight: 400; font-style: normal; font-variant: normal; text-decoration: none; vertical-align: baseline; white-space: pre-wrap;&quot;&gt;&lt;span style=&quot;white-space:pre;&quot; class=&quot;Apple-tab-span&quot;&gt;&#x9;&lt;/span&gt;&lt;/span&gt;&lt;span style=&quot;font-size: 9pt; font-family: &amp;quot;Courier New&amp;quot;, monospace; color: rgb(0, 0, 0); background-color: transparent; font-weight: 400; font-style: normal; font-variant: normal; text-decoration: none; vertical-align: baseline; white-space: pre-wrap;&quot;&gt;&quot;Angela Clemens&quot;&lt;/span&gt;&lt;/p&gt;&lt;p align=&quot;left&quot; style=&quot;line-height:1.2;margin-top:0pt;margin-bottom:0pt;&quot; dir=&quot;ltr&quot;&gt;&lt;span style=&quot;font-size: 9pt; font-family: &amp;quot;Courier New&amp;quot;, monospace; color: rgb(0, 0, 0); background-color: transparent; font-weight: 400; font-style: normal; font-variant: normal; text-decoration: none; vertical-align: baseline; white-space: pre-wrap;&quot;&gt;&amp;nbsp;&amp;nbsp;&amp;nbsp;&amp;nbsp;&amp;nbsp;&amp;nbsp;&amp;nbsp;&amp;nbsp;&lt;/span&gt;&lt;span style=&quot;font-size: 9pt; font-family: &amp;quot;Courier New&amp;quot;, monospace; color: rgb(0, 0, 0); background-color: transparent; font-weight: 400; font-style: normal; font-variant: normal; text-decoration: none; vertical-align: baseline; white-space: pre-wrap;&quot;&gt;&lt;span style=&quot;white-space:pre;&quot; class=&quot;Apple-tab-span&quot;&gt;&#x9;&lt;/span&gt;&lt;/span&gt;&lt;span style=&quot;font-size: 9pt; font-family: &amp;quot;Courier New&amp;quot;, monospace; color: rgb(0, 0, 0); background-color: transparent; font-weight: 400; font-style: normal; font-variant: normal; text-decoration: none; vertical-align: baseline; white-space: pre-wrap;&quot;&gt;],&lt;/span&gt;&lt;/p&gt;&lt;p align=&quot;left&quot; style=&quot;line-height:1.2;margin-top:0pt;margin-bottom:0pt;&quot; dir=&quot;ltr&quot;&gt;&lt;span style=&quot;font-size: 9pt; font-family: &amp;quot;Courier New&amp;quot;, monospace; color: rgb(0, 0, 0); background-color: transparent; font-weight: 400; font-style: normal; font-variant: normal; text-decoration: none; vertical-align: baseline; white-space: pre-wrap;&quot;&gt;&amp;nbsp;&amp;nbsp;&amp;nbsp;&amp;nbsp;&amp;nbsp;&amp;nbsp;&amp;nbsp;&amp;nbsp;&lt;/span&gt;&lt;span style=&quot;font-size: 9pt; font-family: &amp;quot;Courier New&amp;quot;, monospace; color: rgb(0, 0, 0); background-color: transparent; font-weight: 400; font-style: normal; font-variant: normal; text-decoration: none; vertical-align: baseline; white-space: pre-wrap;&quot;&gt;&lt;span style=&quot;white-space:pre;&quot; class=&quot;Apple-tab-span&quot;&gt;&#x9;&lt;/span&gt;&lt;/span&gt;&lt;span style=&quot;font-size: 9pt; font-family: &amp;quot;Courier New&amp;quot;, monospace; color: rgb(0, 0, 0); background-color: transparent; font-weight: 400; font-style: normal; font-variant: normal; text-decoration: none; vertical-align: baseline; white-space: pre-wrap;&quot;&gt;&quot;display&quot;: [&lt;/span&gt;&lt;/p&gt;&lt;p align=&quot;left&quot; style=&quot;line-height:1.2;margin-top:0pt;margin-bottom:0pt;&quot; dir=&quot;ltr&quot;&gt;&lt;span style=&quot;font-size: 9pt; font-family: &amp;quot;Courier New&amp;quot;, monospace; color: rgb(0, 0, 0); background-color: transparent; font-weight: 400; font-style: normal; font-variant: normal; text-decoration: none; vertical-align: baseline; white-space: pre-wrap;&quot;&gt;&amp;nbsp;&amp;nbsp;&amp;nbsp;&amp;nbsp;&amp;nbsp;&amp;nbsp;&amp;nbsp;&amp;nbsp;&amp;nbsp;&amp;nbsp;&amp;nbsp;&amp;nbsp;&lt;/span&gt;&lt;span style=&quot;font-size: 9pt; font-family: &amp;quot;Courier New&amp;quot;, monospace; color: rgb(0, 0, 0); background-color: transparent; font-weight: 400; font-style: normal; font-variant: normal; text-decoration: none; vertical-align: baseline; white-space: pre-wrap;&quot;&gt;&lt;span style=&quot;white-space:pre;&quot; class=&quot;Apple-tab-span&quot;&gt;&#x9;&lt;/span&gt;&lt;/span&gt;&lt;span style=&quot;font-size: 9pt; font-family: &amp;quot;Courier New&amp;quot;, monospace; color: rgb(0, 0, 0); background-color: transparent; font-weight: 400; font-style: normal; font-variant: normal; text-decoration: none; vertical-align: baseline; white-space: pre-wrap;&quot;&gt;{&lt;/span&gt;&lt;/p&gt;&lt;p align=&quot;left&quot; style=&quot;line-height:1.2;margin-top:0pt;margin-bottom:0pt;&quot; dir=&quot;ltr&quot;&gt;&lt;span style=&quot;font-size: 9pt; font-family: &amp;quot;Courier New&amp;quot;, monospace; color: rgb(0, 0, 0); background-color: transparent; font-weight: 400; font-style: normal; font-variant: normal; text-decoration: none; vertical-align: baseline; white-space: pre-wrap;&quot;&gt;&amp;nbsp;&amp;nbsp;&amp;nbsp;&amp;nbsp;&amp;nbsp;&amp;nbsp;&amp;nbsp;&amp;nbsp;&amp;nbsp;&amp;nbsp;&amp;nbsp;&amp;nbsp;&amp;nbsp;&amp;nbsp;&amp;nbsp;&amp;nbsp;&lt;/span&gt;&lt;span style=&quot;font-size: 9pt; font-family: &amp;quot;Courier New&amp;quot;, monospace; color: rgb(0, 0, 0); background-color: transparent; font-weight: 400; font-style: normal; font-variant: normal; text-decoration: none; vertical-align: baseline; white-space: pre-wrap;&quot;&gt;&lt;span style=&quot;white-space:pre;&quot; class=&quot;Apple-tab-span&quot;&gt;&#x9;&lt;/span&gt;&lt;/span&gt;&lt;span style=&quot;font-size: 9pt; font-family: &amp;quot;Courier New&amp;quot;, monospace; color: rgb(0, 0, 0); background-color: transparent; font-weight: 400; font-style: normal; font-variant: normal; text-decoration: none; vertical-align: baseline; white-space: pre-wrap;&quot;&gt;&quot;label&quot;: &quot;label&quot;,&lt;/span&gt;&lt;/p&gt;&lt;p align=&quot;left&quot; style=&quot;line-height:1.2;margin-top:0pt;margin-bottom:0pt;&quot; dir=&quot;ltr&quot;&gt;&lt;span style=&quot;font-size: 9pt; font-family: &amp;quot;Courier New&amp;quot;, monospace; color: rgb(0, 0, 0); background-color: transparent; font-weight: 400; font-style: normal; font-variant: normal; text-decoration: none; vertical-align: baseline; white-space: pre-wrap;&quot;&gt;&amp;nbsp;&amp;nbsp;&amp;nbsp;&amp;nbsp;&amp;nbsp;&amp;nbsp;&amp;nbsp;&amp;nbsp;&amp;nbsp;&amp;nbsp;&amp;nbsp;&amp;nbsp;&amp;nbsp;&amp;nbsp;&amp;nbsp;&amp;nbsp;&lt;/span&gt;&lt;span style=&quot;font-size: 9pt; font-family: &amp;quot;Courier New&amp;quot;, monospace; color: rgb(0, 0, 0); background-color: transparent; font-weight: 400; font-style: normal; font-variant: normal; text-decoration: none; vertical-align: baseline; white-space: pre-wrap;&quot;&gt;&lt;span style=&quot;white-space:pre;&quot; class=&quot;Apple-tab-span&quot;&gt;&#x9;&lt;/span&gt;&lt;/span&gt;&lt;span style=&quot;font-size: 9pt; font-family: &amp;quot;Courier New&amp;quot;, monospace; color: rgb(0, 0, 0); background-color: transparent; font-weight: 400; font-style: normal; font-variant: normal; text-decoration: none; vertical-align: baseline; white-space: pre-wrap;&quot;&gt;&quot;text&quot;: &quot;${label}&quot;,&lt;/span&gt;&lt;/p&gt;&lt;p align=&quot;left&quot; style=&quot;line-height:1.2;margin-top:0pt;margin-bottom:0pt;&quot; dir=&quot;ltr&quot;&gt;&lt;span style=&quot;font-size: 9pt; font-family: &amp;quot;Courier New&amp;quot;, monospace; color: rgb(0, 0, 0); background-color: transparent; font-weight: 400; font-style: normal; font-variant: normal; text-decoration: none; vertical-align: baseline; white-space: pre-wrap;&quot;&gt;&amp;nbsp;&amp;nbsp;&amp;nbsp;&amp;nbsp;&amp;nbsp;&amp;nbsp;&amp;nbsp;&amp;nbsp;&amp;nbsp;&amp;nbsp;&amp;nbsp;&amp;nbsp;&amp;nbsp;&amp;nbsp;&amp;nbsp;&amp;nbsp;&lt;/span&gt;&lt;span style=&quot;font-size: 9pt; font-family: &amp;quot;Courier New&amp;quot;, monospace; color: rgb(0, 0, 0); background-color: transparent; font-weight: 400; font-style: normal; font-variant: normal; text-decoration: none; vertical-align: baseline; white-space: pre-wrap;&quot;&gt;&lt;span style=&quot;white-space:pre;&quot; class=&quot;Apple-tab-span&quot;&gt;&#x9;&lt;/span&gt;&lt;/span&gt;&lt;span style=&quot;font-size: 9pt; font-family: &amp;quot;Courier New&amp;quot;, monospace; color: rgb(0, 0, 0); background-color: transparent; font-weight: 400; font-style: normal; font-variant: normal; text-decoration: none; vertical-align: baseline; white-space: pre-wrap;&quot;&gt;&quot;type&quot;: &quot;text&quot;&lt;/span&gt;&lt;/p&gt;&lt;p align=&quot;left&quot; style=&quot;line-height:1.2;margin-top:0pt;margin-bottom:0pt;&quot; dir=&quot;ltr&quot;&gt;&lt;span style=&quot;font-size: 9pt; font-family: &amp;quot;Courier New&amp;quot;, monospace; color: rgb(0, 0, 0); background-color: transparent; font-weight: 400; font-style: normal; font-variant: normal; text-decoration: none; vertical-align: baseline; white-space: pre-wrap;&quot;&gt;&amp;nbsp;&amp;nbsp;&amp;nbsp;&amp;nbsp;&amp;nbsp;&amp;nbsp;&amp;nbsp;&amp;nbsp;&amp;nbsp;&amp;nbsp;&amp;nbsp;&amp;nbsp;&lt;/span&gt;&lt;span style=&quot;font-size: 9pt; font-family: &amp;quot;Courier New&amp;quot;, monospace; color: rgb(0, 0, 0); background-color: transparent; font-weight: 400; font-style: normal; font-variant: normal; text-decoration: none; vertical-align: baseline; white-space: pre-wrap;&quot;&gt;&lt;span style=&quot;white-space:pre;&quot; class=&quot;Apple-tab-span&quot;&gt;&#x9;&lt;/span&gt;&lt;/span&gt;&lt;span style=&quot;font-size: 9pt; font-family: &amp;quot;Courier New&amp;quot;, monospace; color: rgb(0, 0, 0); background-color: transparent; font-weight: 400; font-style: normal; font-variant: normal; text-decoration: none; vertical-align: baseline; white-space: pre-wrap;&quot;&gt;},&lt;/span&gt;&lt;/p&gt;&lt;p align=&quot;left&quot; style=&quot;line-height:1.2;margin-top:0pt;margin-bottom:0pt;&quot; dir=&quot;ltr&quot;&gt;&lt;span style=&quot;font-size: 9pt; font-family: &amp;quot;Courier New&amp;quot;, monospace; color: rgb(0, 0, 0); background-color: transparent; font-weight: 400; font-style: normal; font-variant: normal; text-decoration: none; vertical-align: baseline; white-space: pre-wrap;&quot;&gt;&amp;nbsp;&amp;nbsp;&amp;nbsp;&amp;nbsp;&amp;nbsp;&amp;nbsp;&amp;nbsp;&amp;nbsp;&amp;nbsp;&amp;nbsp;&amp;nbsp;&amp;nbsp;&lt;/span&gt;&lt;span style=&quot;font-size: 9pt; font-family: &amp;quot;Courier New&amp;quot;, monospace; color: rgb(0, 0, 0); background-color: transparent; font-weight: 400; font-style: normal; font-variant: normal; text-decoration: none; vertical-align: baseline; white-space: pre-wrap;&quot;&gt;&lt;span style=&quot;white-space:pre;&quot; class=&quot;Apple-tab-span&quot;&gt;&#x9;&lt;/span&gt;&lt;/span&gt;&lt;span style=&quot;font-size: 9pt; font-family: &amp;quot;Courier New&amp;quot;, monospace; color: rgb(0, 0, 0); background-color: transparent; font-weight: 400; font-style: normal; font-variant: normal; text-decoration: none; vertical-align: baseline; white-space: pre-wrap;&quot;&gt;{&lt;/span&gt;&lt;/p&gt;&lt;p align=&quot;left&quot; style=&quot;line-height:1.2;margin-top:0pt;margin-bottom:0pt;&quot; dir=&quot;ltr&quot;&gt;&lt;span style=&quot;font-size: 9pt; font-family: &amp;quot;Courier New&amp;quot;, monospace; color: rgb(0, 0, 0); background-color: transparent; font-weight: 400; font-style: normal; font-variant: normal; text-decoration: none; vertical-align: baseline; white-space: pre-wrap;&quot;&gt;&amp;nbsp;&amp;nbsp;&amp;nbsp;&amp;nbsp;&amp;nbsp;&amp;nbsp;&amp;nbsp;&amp;nbsp;&amp;nbsp;&amp;nbsp;&amp;nbsp;&amp;nbsp;&amp;nbsp;&amp;nbsp;&amp;nbsp;&amp;nbsp;&lt;/span&gt;&lt;span style=&quot;font-size: 9pt; font-family: &amp;quot;Courier New&amp;quot;, monospace; color: rgb(0, 0, 0); background-color: transparent; font-weight: 400; font-style: normal; font-variant: normal; text-decoration: none; vertical-align: baseline; white-space: pre-wrap;&quot;&gt;&lt;span style=&quot;white-space:pre;&quot; class=&quot;Apple-tab-span&quot;&gt;&#x9;&lt;/span&gt;&lt;/span&gt;&lt;span style=&quot;font-size: 9pt; font-family: &amp;quot;Courier New&amp;quot;, monospace; color: rgb(0, 0, 0); background-color: transparent; font-weight: 400; font-style: normal; font-variant: normal; text-decoration: none; vertical-align: baseline; white-space: pre-wrap;&quot;&gt;&quot;label&quot;: &quot;Authors ID&quot;,&lt;/span&gt;&lt;/p&gt;&lt;p align=&quot;left&quot; style=&quot;line-height:1.2;margin-top:0pt;margin-bottom:0pt;&quot; dir=&quot;ltr&quot;&gt;&lt;span style=&quot;font-size: 9pt; font-family: &amp;quot;Courier New&amp;quot;, monospace; color: rgb(0, 0, 0); background-color: transparent; font-weight: 400; font-style: normal; font-variant: normal; text-decoration: none; vertical-align: baseline; white-space: pre-wrap;&quot;&gt;&amp;nbsp;&amp;nbsp;&amp;nbsp;&amp;nbsp;&amp;nbsp;&amp;nbsp;&amp;nbsp;&amp;nbsp;&amp;nbsp;&amp;nbsp;&amp;nbsp;&amp;nbsp;&amp;nbsp;&amp;nbsp;&amp;nbsp;&amp;nbsp;&lt;/span&gt;&lt;span style=&quot;font-size: 9pt; font-family: &amp;quot;Courier New&amp;quot;, monospace; color: rgb(0, 0, 0); background-color: transparent; font-weight: 400; font-style: normal; font-variant: normal; text-decoration: none; vertical-align: baseline; white-space: pre-wrap;&quot;&gt;&lt;span style=&quot;white-space:pre;&quot; class=&quot;Apple-tab-span&quot;&gt;&#x9;&lt;/span&gt;&lt;/span&gt;&lt;span style=&quot;font-size: 9pt; font-family: &amp;quot;Courier New&amp;quot;, monospace; color: rgb(0, 0, 0); background-color: transparent; font-weight: 400; font-style: normal; font-variant: normal; text-decoration: none; vertical-align: baseline; white-space: pre-wrap;&quot;&gt;&quot;text&quot;: &quot;${id}&quot;,&lt;/span&gt;&lt;/p&gt;&lt;p align=&quot;left&quot; style=&quot;line-height:1.2;margin-top:0pt;margin-bottom:0pt;&quot; dir=&quot;ltr&quot;&gt;&lt;span style=&quot;font-size: 9pt; font-family: &amp;quot;Courier New&amp;quot;, monospace; color: rgb(0, 0, 0); background-color: transparent; font-weight: 400; font-style: normal; font-variant: normal; text-decoration: none; vertical-align: baseline; white-space: pre-wrap;&quot;&gt;&amp;nbsp;&amp;nbsp;&amp;nbsp;&amp;nbsp;&amp;nbsp;&amp;nbsp;&amp;nbsp;&amp;nbsp;&amp;nbsp;&amp;nbsp;&amp;nbsp;&amp;nbsp;&amp;nbsp;&amp;nbsp;&amp;nbsp;&amp;nbsp;&lt;/span&gt;&lt;span style=&quot;font-size: 9pt; font-family: &amp;quot;Courier New&amp;quot;, monospace; color: rgb(0, 0, 0); background-color: transparent; font-weight: 400; font-style: normal; font-variant: normal; text-decoration: none; vertical-align: baseline; white-space: pre-wrap;&quot;&gt;&lt;span style=&quot;white-space:pre;&quot; class=&quot;Apple-tab-span&quot;&gt;&#x9;&lt;/span&gt;&lt;/span&gt;&lt;span style=&quot;font-size: 9pt; font-family: &amp;quot;Courier New&amp;quot;, monospace; color: rgb(0, 0, 0); background-color: transparent; font-weight: 400; font-style: normal; font-variant: normal; text-decoration: none; vertical-align: baseline; white-space: pre-wrap;&quot;&gt;&quot;type&quot;: &quot;text&quot;&lt;/span&gt;&lt;/p&gt;&lt;p align=&quot;left&quot; style=&quot;line-height:1.2;margin-top:0pt;margin-bottom:0pt;&quot; dir=&quot;ltr&quot;&gt;&lt;span style=&quot;font-size: 9pt; font-family: &amp;quot;Courier New&amp;quot;, monospace; color: rgb(0, 0, 0); background-color: transparent; font-weight: 400; font-style: normal; font-variant: normal; text-decoration: none; vertical-align: baseline; white-space: pre-wrap;&quot;&gt;&amp;nbsp;&amp;nbsp;&amp;nbsp;&amp;nbsp;&amp;nbsp;&amp;nbsp;&amp;nbsp;&amp;nbsp;&amp;nbsp;&amp;nbsp;&amp;nbsp;&amp;nbsp;&lt;/span&gt;&lt;span style=&quot;font-size: 9pt; font-family: &amp;quot;Courier New&amp;quot;, monospace; color: rgb(0, 0, 0); background-color: transparent; font-weight: 400; font-style: normal; font-variant: normal; text-decoration: none; vertical-align: baseline; white-space: pre-wrap;&quot;&gt;&lt;span style=&quot;white-space:pre;&quot; class=&quot;Apple-tab-span&quot;&gt;&#x9;&lt;/span&gt;&lt;/span&gt;&lt;span style=&quot;font-size: 9pt; font-family: &amp;quot;Courier New&amp;quot;, monospace; color: rgb(0, 0, 0); background-color: transparent; font-weight: 400; font-style: normal; font-variant: normal; text-decoration: none; vertical-align: baseline; white-space: pre-wrap;&quot;&gt;}&lt;/span&gt;&lt;/p&gt;&lt;p align=&quot;left&quot; style=&quot;line-height:1.2;margin-top:0pt;margin-bottom:0pt;&quot; dir=&quot;ltr&quot;&gt;&lt;span style=&quot;font-size: 9pt; font-family: &amp;quot;Courier New&amp;quot;, monospace; color: rgb(0, 0, 0); background-color: transparent; font-weight: 400; font-style: normal; font-variant: normal; text-decoration: none; vertical-align: baseline; white-space: pre-wrap;&quot;&gt;&amp;nbsp;&amp;nbsp;&amp;nbsp;&amp;nbsp;&amp;nbsp;&amp;nbsp;&amp;nbsp;&amp;nbsp;&lt;/span&gt;&lt;span style=&quot;font-size: 9pt; font-family: &amp;quot;Courier New&amp;quot;, monospace; color: rgb(0, 0, 0); background-color: transparent; font-weight: 400; font-style: normal; font-variant: normal; text-decoration: none; vertical-align: baseline; white-space: pre-wrap;&quot;&gt;&lt;span style=&quot;white-space:pre;&quot; class=&quot;Apple-tab-span&quot;&gt;&#x9;&lt;/span&gt;&lt;/span&gt;&lt;span style=&quot;font-size: 9pt; font-family: &amp;quot;Courier New&amp;quot;, monospace; color: rgb(0, 0, 0); background-color: transparent; font-weight: 400; font-style: normal; font-variant: normal; text-decoration: none; vertical-align: baseline; white-space: pre-wrap;&quot;&gt;],&lt;/span&gt;&lt;/p&gt;&lt;p align=&quot;left&quot; style=&quot;line-height:1.2;margin-top:0pt;margin-bottom:0pt;&quot; dir=&quot;ltr&quot;&gt;&lt;span style=&quot;font-size: 9pt; font-family: &amp;quot;Courier New&amp;quot;, monospace; color: rgb(0, 0, 0); background-color: transparent; font-weight: 400; font-style: normal; font-variant: normal; text-decoration: none; vertical-align: baseline; white-space: pre-wrap;&quot;&gt;&amp;nbsp;&amp;nbsp;&amp;nbsp;&amp;nbsp;&amp;nbsp;&amp;nbsp;&amp;nbsp;&amp;nbsp;&lt;/span&gt;&lt;span style=&quot;font-size: 9pt; font-family: &amp;quot;Courier New&amp;quot;, monospace; color: rgb(0, 0, 0); background-color: transparent; font-weight: 400; font-style: normal; font-variant: normal; text-decoration: none; vertical-align: baseline; white-space: pre-wrap;&quot;&gt;&lt;span style=&quot;white-space:pre;&quot; class=&quot;Apple-tab-span&quot;&gt;&#x9;&lt;/span&gt;&lt;/span&gt;&lt;span style=&quot;font-size: 9pt; font-family: &amp;quot;Courier New&amp;quot;, monospace; color: rgb(0, 0, 0); background-color: transparent; font-weight: 400; font-style: normal; font-variant: normal; text-decoration: none; vertical-align: baseline; white-space: pre-wrap;&quot;&gt;&quot;relation&quot;: [],&lt;/span&gt;&lt;/p&gt;&lt;p align=&quot;left&quot; style=&quot;line-height:1.2;margin-top:0pt;margin-bottom:0pt;&quot; dir=&quot;ltr&quot;&gt;&lt;span style=&quot;font-size: 9pt; font-family: &amp;quot;Courier New&amp;quot;, monospace; color: rgb(0, 0, 0); background-color: transparent; font-weight: 400; font-style: normal; font-variant: normal; text-decoration: none; vertical-align: baseline; white-space: pre-wrap;&quot;&gt;&amp;nbsp;&amp;nbsp;&amp;nbsp;&amp;nbsp;&amp;nbsp;&amp;nbsp;&amp;nbsp;&amp;nbsp;&lt;/span&gt;&lt;span style=&quot;font-size: 9pt; font-family: &amp;quot;Courier New&amp;quot;, monospace; color: rgb(0, 0, 0); background-color: transparent; font-weight: 400; font-style: normal; font-variant: normal; text-decoration: none; vertical-align: baseline; white-space: pre-wrap;&quot;&gt;&lt;span style=&quot;white-space:pre;&quot; class=&quot;Apple-tab-span&quot;&gt;&#x9;&lt;/span&gt;&lt;/span&gt;&lt;span style=&quot;font-size: 9pt; font-family: &amp;quot;Courier New&amp;quot;, monospace; color: rgb(0, 0, 0); background-color: transparent; font-weight: 400; font-style: normal; font-variant: normal; text-decoration: none; vertical-align: baseline; white-space: pre-wrap;&quot;&gt;&quot;search&quot;: [&lt;/span&gt;&lt;/p&gt;&lt;p align=&quot;left&quot; style=&quot;line-height:1.2;margin-top:0pt;margin-bottom:0pt;&quot; dir=&quot;ltr&quot;&gt;&lt;span style=&quot;font-size: 9pt; font-family: &amp;quot;Courier New&amp;quot;, monospace; color: rgb(0, 0, 0); background-color: transparent; font-weight: 400; font-style: normal; font-variant: normal; text-decoration: none; vertical-align: baseline; white-space: pre-wrap;&quot;&gt;&amp;nbsp;&amp;nbsp;&amp;nbsp;&amp;nbsp;&amp;nbsp;&amp;nbsp;&amp;nbsp;&amp;nbsp;&amp;nbsp;&amp;nbsp;&amp;nbsp;&amp;nbsp;&lt;/span&gt;&lt;span style=&quot;font-size: 9pt; font-family: &amp;quot;Courier New&amp;quot;, monospace; color: rgb(0, 0, 0); background-color: transparent; font-weight: 400; font-style: normal; font-variant: normal; text-decoration: none; vertical-align: baseline; white-space: pre-wrap;&quot;&gt;&lt;span style=&quot;white-space:pre;&quot; class=&quot;Apple-tab-span&quot;&gt;&#x9;&lt;/span&gt;&lt;/span&gt;&lt;span style=&quot;font-size: 9pt; font-family: &amp;quot;Courier New&amp;quot;, monospace; color: rgb(0, 0, 0); background-color: transparent; font-weight: 400; font-style: normal; font-variant: normal; text-decoration: none; vertical-align: baseline; white-space: pre-wrap;&quot;&gt;&quot;id&quot;,&lt;/span&gt;&lt;/p&gt;&lt;p align=&quot;left&quot; style=&quot;line-height:1.2;margin-top:0pt;margin-bottom:0pt;&quot; dir=&quot;ltr&quot;&gt;&lt;span style=&quot;font-size: 9pt; font-family: &amp;quot;Courier New&amp;quot;, monospace; color: rgb(0, 0, 0); background-color: transparent; font-weight: 400; font-style: normal; font-variant: normal; text-decoration: none; vertical-align: baseline; white-space: pre-wrap;&quot;&gt;&amp;nbsp;&amp;nbsp;&amp;nbsp;&amp;nbsp;&amp;nbsp;&amp;nbsp;&amp;nbsp;&amp;nbsp;&amp;nbsp;&amp;nbsp;&amp;nbsp;&amp;nbsp;&lt;/span&gt;&lt;span style=&quot;font-size: 9pt; font-family: &amp;quot;Courier New&amp;quot;, monospace; color: rgb(0, 0, 0); background-color: transparent; font-weight: 400; font-style: normal; font-variant: normal; text-decoration: none; vertical-align: baseline; white-space: pre-wrap;&quot;&gt;&lt;span style=&quot;white-space:pre;&quot; class=&quot;Apple-tab-span&quot;&gt;&#x9;&lt;/span&gt;&lt;/span&gt;&lt;span style=&quot;font-size: 9pt; font-family: &amp;quot;Courier New&amp;quot;, monospace; color: rgb(0, 0, 0); background-color: transparent; font-weight: 400; font-style: normal; font-variant: normal; text-decoration: none; vertical-align: baseline; white-space: pre-wrap;&quot;&gt;&quot;label&quot;&lt;/span&gt;&lt;/p&gt;&lt;p align=&quot;left&quot; style=&quot;line-height:1.2;margin-top:0pt;margin-bottom:0pt;&quot; dir=&quot;ltr&quot;&gt;&lt;span style=&quot;font-size: 9pt; font-family: &amp;quot;Courier New&amp;quot;, monospace; color: rgb(0, 0, 0); background-color: transparent; font-weight: 400; font-style: normal; font-variant: normal; text-decoration: none; vertical-align: baseline; white-space: pre-wrap;&quot;&gt;&amp;nbsp;&amp;nbsp;&amp;nbsp;&amp;nbsp;&amp;nbsp;&amp;nbsp;&amp;nbsp;&amp;nbsp;&lt;/span&gt;&lt;span style=&quot;font-size: 9pt; font-family: &amp;quot;Courier New&amp;quot;, monospace; color: rgb(0, 0, 0); background-color: transparent; font-weight: 400; font-style: normal; font-variant: normal; text-decoration: none; vertical-align: baseline; white-space: pre-wrap;&quot;&gt;&lt;span style=&quot;white-space:pre;&quot; class=&quot;Apple-tab-span&quot;&gt;&#x9;&lt;/span&gt;&lt;/span&gt;&lt;span style=&quot;font-size: 9pt; font-family: &amp;quot;Courier New&amp;quot;, monospace; color: rgb(0, 0, 0); background-color: transparent; font-weight: 400; font-style: normal; font-variant: normal; text-decoration: none; vertical-align: baseline; white-space: pre-wrap;&quot;&gt;],&lt;/span&gt;&lt;/p&gt;&lt;p align=&quot;left&quot; style=&quot;line-height:1.2;margin-top:0pt;margin-bottom:0pt;&quot; dir=&quot;ltr&quot;&gt;&lt;span id=&quot;docs-internal-guid-1ec75008-7fff-a55a-397a-1c43f6a054c6&quot; style=&quot;font-size:9pt;font-family:&#39;Courier New&#39;,monospace;color:#000000;background-color:transparent;font-weight:400;font-style:normal;font-variant:normal;text-decoration:none;vertical-align:baseline;white-space:pre;white-space:pre-wrap;&quot;&gt;&amp;nbsp;&amp;nbsp;&amp;nbsp;&amp;nbsp;&amp;nbsp;&amp;nbsp;&amp;nbsp;&amp;nbsp;&lt;/span&gt;&lt;span style=&quot;font-size:9pt;font-family:&#39;Courier New&#39;,monospace;color:#000000;background-color:transparent;font-weight:400;font-style:normal;font-variant:normal;text-decoration:none;vertical-align:baseline;white-space:pre;white-space:pre-wrap;&quot;&gt;&lt;span style=&quot;white-space:pre;&quot; class=&quot;Apple-tab-span&quot;&gt;&#x9;&lt;/span&gt;&lt;/span&gt;&lt;font face=&quot;Courier New, monospace&quot;&gt;&quot;color&quot;: &lt;/font&gt;&lt;span style=&quot;font-size:9pt;font-family:&#39;Courier New&#39;,monospace;color:#a31515;background-color:transparent;font-weight:400;font-style:normal;font-variant:normal;text-decoration:none;vertical-align:baseline;white-space:pre;white-space:pre-wrap;&quot;&gt;&quot;#ADB2D4&quot;&lt;/span&gt;&lt;/p&gt;&lt;p align=&quot;left&quot; style=&quot;line-height:1.2;margin-top:0pt;margin-bottom:0pt;&quot; dir=&quot;ltr&quot;&gt;&lt;span style=&quot;font-size: 9pt; font-family: &amp;quot;Courier New&amp;quot;, monospace; color: rgb(0, 0, 0); background-color: transparent; font-weight: 400; font-style: normal; font-variant: normal; text-decoration: none; vertical-align: baseline; white-space: pre-wrap;&quot;&gt;&amp;nbsp;&amp;nbsp;&amp;nbsp;&amp;nbsp;&lt;/span&gt;&lt;span style=&quot;font-size: 9pt; font-family: &amp;quot;Courier New&amp;quot;, monospace; color: rgb(0, 0, 0); background-color: transparent; font-weight: 400; font-style: normal; font-variant: normal; text-decoration: none; vertical-align: baseline; white-space: pre-wrap;&quot;&gt;&lt;span style=&quot;white-space:pre;&quot; class=&quot;Apple-tab-span&quot;&gt;&#x9;&lt;/span&gt;&lt;/span&gt;&lt;span style=&quot;font-size: 9pt; font-family: &amp;quot;Courier New&amp;quot;, monospace; color: rgb(0, 0, 0); background-color: transparent; font-weight: 400; font-style: normal; font-variant: normal; text-decoration: none; vertical-align: baseline; white-space: pre-wrap;&quot;&gt;}&lt;/span&gt;&lt;/p&gt;&lt;p align=&quot;left&quot; style=&quot;line-height:1.2;margin-top:0pt;margin-bottom:0pt;&quot; dir=&quot;ltr&quot;&gt;&lt;span style=&quot;font-size: 9pt; font-family: &amp;quot;Courier New&amp;quot;, monospace; color: rgb(0, 0, 0); background-color: transparent; font-weight: 400; font-style: normal; font-variant: normal; text-decoration: none; vertical-align: baseline; white-space: pre-wrap;&quot;&gt;]&lt;/span&gt;&lt;/p&gt;" style="rounded=1;whiteSpace=wrap;html=1;absoluteArcSize=1;strokeWidth=2;" vertex="1" parent="1">
          <mxGeometry x="120" y="80" width="320" height="440" as="geometry" />
        </mxCell>
        <mxCell id="vIwmV1KeTdYrx_ldE85M-3" value="&lt;p align=&quot;left&quot; style=&quot;line-height:1.2;margin-top:0pt;margin-bottom:0pt;&quot; dir=&quot;ltr&quot;&gt;&lt;span style=&quot;font-size: 9pt; font-family: &amp;quot;Courier New&amp;quot;, monospace; color: rgb(0, 0, 0); background-color: transparent; font-weight: 400; font-style: normal; font-variant: normal; text-decoration: none; vertical-align: baseline; white-space: pre-wrap;&quot;&gt;&quot;search&quot;: [&lt;/span&gt;&lt;/p&gt;&lt;p align=&quot;left&quot; style=&quot;line-height:1.2;margin-top:0pt;margin-bottom:0pt;&quot; dir=&quot;ltr&quot;&gt;&lt;span style=&quot;white-space: pre;&quot;&gt;&#x9;&lt;/span&gt;&lt;span style=&quot;font-size: 9pt; font-family: &amp;quot;Courier New&amp;quot;, monospace; color: rgb(0, 0, 0); background-color: transparent; font-weight: 400; font-style: normal; font-variant: normal; text-decoration: none; vertical-align: baseline; white-space: pre-wrap;&quot;&gt;&quot;id&quot;,&lt;/span&gt;&lt;/p&gt;&lt;p align=&quot;left&quot; style=&quot;line-height:1.2;margin-top:0pt;margin-bottom:0pt;&quot; dir=&quot;ltr&quot;&gt;&lt;span style=&quot;white-space: pre;&quot;&gt;&#x9;&lt;/span&gt;&lt;span style=&quot;font-size: 9pt; font-family: &amp;quot;Courier New&amp;quot;, monospace; color: rgb(0, 0, 0); background-color: transparent; font-weight: 400; font-style: normal; font-variant: normal; text-decoration: none; vertical-align: baseline; white-space: pre-wrap;&quot;&gt;&quot;label&quot;&lt;/span&gt;&lt;/p&gt;&lt;p align=&quot;left&quot; style=&quot;line-height:1.2;margin-top:0pt;margin-bottom:0pt;&quot; dir=&quot;ltr&quot;&gt;&lt;span style=&quot;font-size: 9pt; font-family: &amp;quot;Courier New&amp;quot;, monospace; color: rgb(0, 0, 0); background-color: transparent; font-weight: 400; font-style: normal; font-variant: normal; text-decoration: none; vertical-align: baseline; white-space: pre-wrap;&quot;&gt;]&lt;/span&gt;&lt;/p&gt;" style="rounded=1;whiteSpace=wrap;html=1;absoluteArcSize=1;strokeWidth=2;strokeColor=#C3ABD0;expand=1;resizable=1;" vertex="1" parent="1">
          <mxGeometry x="490" y="90" width="120" height="70" as="geometry" />
        </mxCell>
        <mxCell id="vIwmV1KeTdYrx_ldE85M-4" value="" style="rounded=1;whiteSpace=wrap;html=1;absoluteArcSize=1;strokeWidth=2;fillColor=none;strokeColor=#C3ABD0;" vertex="1" parent="1">
          <mxGeometry x="200" y="404" width="120" height="60" as="geometry" />
        </mxCell>
        <mxCell id="vIwmV1KeTdYrx_ldE85M-6" value="" style="endArrow=classic;html=1;rounded=0;entryX=0;entryY=0.5;entryDx=0;entryDy=0;" edge="1" parent="1" target="vIwmV1KeTdYrx_ldE85M-3">
          <mxGeometry width="50" height="50" relative="1" as="geometry">
            <mxPoint x="320" y="450" as="sourcePoint" />
            <mxPoint x="470" y="120" as="targetPoint" />
            <Array as="points">
              <mxPoint x="470" y="450" />
              <mxPoint x="470" y="280" />
              <mxPoint x="470" y="125" />
            </Array>
          </mxGeometry>
        </mxCell>
        <mxCell id="vIwmV1KeTdYrx_ldE85M-12" value="" style="edgeStyle=orthogonalEdgeStyle;rounded=0;orthogonalLoop=1;jettySize=auto;html=1;" edge="1" parent="1" source="vIwmV1KeTdYrx_ldE85M-7">
          <mxGeometry relative="1" as="geometry">
            <mxPoint x="490" y="180" as="targetPoint" />
            <Array as="points">
              <mxPoint x="480" y="472" />
              <mxPoint x="480" y="180" />
            </Array>
          </mxGeometry>
        </mxCell>
        <mxCell id="vIwmV1KeTdYrx_ldE85M-7" value="" style="rounded=1;whiteSpace=wrap;html=1;absoluteArcSize=1;strokeWidth=2;fillColor=none;strokeColor=#2F75B6;" vertex="1" parent="1">
          <mxGeometry x="200" y="464" width="150" height="16" as="geometry" />
        </mxCell>
        <mxCell id="vIwmV1KeTdYrx_ldE85M-9" value="&lt;font face=&quot;Courier New, monospace&quot;&gt;&quot;color&quot;: &lt;/font&gt;&lt;span style=&quot;font-size: 9pt; font-family: &amp;quot;Courier New&amp;quot;, monospace; color: rgb(163, 21, 21); background-color: transparent; font-weight: 400; font-style: normal; font-variant: normal; text-decoration: none; vertical-align: baseline; white-space: pre-wrap;&quot;&gt;&quot;#ADB2D4&quot;&lt;/span&gt;" style="rounded=1;whiteSpace=wrap;html=1;absoluteArcSize=1;strokeWidth=2;fillColor=none;strokeColor=#2F75B6;" vertex="1" parent="1">
          <mxGeometry x="490" y="170" width="150" height="16" as="geometry" />
        </mxCell>
        <mxCell id="vIwmV1KeTdYrx_ldE85M-13" value="" style="rounded=1;whiteSpace=wrap;html=1;absoluteArcSize=1;strokeWidth=2;fillColor=none;strokeColor=#2F75B6;" vertex="1" parent="1">
          <mxGeometry x="200" y="210" width="230" height="180" as="geometry" />
        </mxCell>
        <mxCell id="vIwmV1KeTdYrx_ldE85M-14" value="&lt;blockquote&gt;&lt;font face=&quot;Courier New, monospace&quot;&gt;&quot;display&quot;: [&lt;br&gt;&lt;span style=&quot;white-space: pre;&quot;&gt;&#x9;&lt;/span&gt;{&lt;br&gt;&lt;span style=&quot;white-space: pre;&quot;&gt;&#x9;&lt;/span&gt;&lt;span style=&quot;white-space: pre;&quot;&gt;&#x9;&lt;/span&gt;&quot;label&quot;: &quot;label&quot;,&lt;br&gt;&lt;span style=&quot;white-space: pre;&quot;&gt;&#x9;&lt;/span&gt;&lt;span style=&quot;white-space: pre;&quot;&gt;&#x9;&lt;/span&gt;&quot;text&quot;: &lt;br&gt;&lt;span style=&quot;white-space: pre;&quot;&gt;&#x9;&lt;/span&gt;&lt;span style=&quot;white-space: pre;&quot;&gt;&#x9;&lt;/span&gt;&quot;type&quot;: &quot;text&quot;&lt;br&gt;&lt;span style=&quot;white-space: pre;&quot;&gt;&#x9;&lt;/span&gt;},&lt;br&gt;&lt;span style=&quot;white-space: pre;&quot;&gt;&#x9;&lt;/span&gt;{&lt;br&gt;&lt;span style=&quot;white-space: pre;&quot;&gt;&#x9;&lt;/span&gt;&lt;span style=&quot;white-space: pre;&quot;&gt;&#x9;&lt;/span&gt;&quot;label&quot;: &quot;Authors ID&quot;,&lt;br&gt;&lt;span style=&quot;white-space: pre;&quot;&gt;&#x9;&lt;/span&gt;&lt;span style=&quot;white-space: pre;&quot;&gt;&#x9;&lt;/span&gt;&quot;text&quot;: &quot;${id}&quot;,&lt;br&gt;&lt;span style=&quot;white-space: pre;&quot;&gt;&#x9;&lt;/span&gt;&lt;span style=&quot;white-space: pre;&quot;&gt;&#x9;&lt;/span&gt;&quot;type&quot;: &quot;text&quot;&lt;br&gt;&lt;span style=&quot;white-space: pre;&quot;&gt;&#x9;&lt;/span&gt;}&lt;br&gt;],&lt;/font&gt;&lt;/blockquote&gt;" style="rounded=1;whiteSpace=wrap;html=1;absoluteArcSize=1;strokeWidth=2;fillColor=none;strokeColor=#2F75B6;align=left;verticalAlign=top;" vertex="1" parent="1">
          <mxGeometry x="490" y="190" width="300" height="220" as="geometry" />
        </mxCell>
      </root>
    </mxGraphModel>
  </diagram>
</mxfile>
